PathFileType	4	(X/Y/Z)	./resultDataOpenSim/trcMotMarkerGrf/sub10/qtm-01-08.trc
DataRate	CameraRate	NumFrames	NumMarkers	Units	OrigDataRate	OrigDataStartFrame	OrigNumFrames
250.000000	250.000000	7	24	m	250.000000	327	435
Frame#	Time	L.Toe.Tip			R.Toe.Tip			L.Ankle.Lat			R.Ankle.Lat			L.Ankle.Med			R.Ankle.Med			L.Heel			R.Heel			L.Knee.Lat			R.Knee.Lat			L.Knee.Med			R.Knee.Med			L.Thigh.Upper			R.Thigh.Upper			L.ASIS			R.ASIS			V.Sacral			L.Acromium			R.Acromium			C7			L.Elbow			R.Elbow			L.Wrist.Lat			R.Wrist.Lat
		X1	Y1	Z1	X2	Y2	Z2	X3	Y3	Z3	X4	Y4	Z4	X5	Y5	Z5	X6	Y6	Z6	X7	Y7	Z7	X8	Y8	Z8	X9	Y9	Z9	X10	Y10	Z10	X11	Y11	Z11	X12	Y12	Z12	X13	Y13	Z13	X14	Y14	Z14	X15	Y15	Z15	X16	Y16	Z16	X17	Y17	Z17	X18	Y18	Z18	X19	Y19	Z19	X20	Y20	Z20	X21	Y21	Z21	X22	Y22	Z22	X23	Y23	Z23	X24	Y24	Z24

327	1.304	0.53844281	0.076547782	-0.18202246	0.86939228	0.03847521	-0.016470417	0.49135238	0.20426669	-0.20234408	0.72706003	0.055388361	0.02000569	0.52068803	0.2043766	-0.122013	0.74771766	0.081331727	-0.063484184	0.43340695	0.23555401	-0.15150674	0.67506458	0.033084802	-0.025146084	0.78179079	0.44201943	-0.23351287	0.80431219	0.44903162	0.052283704	0.80913883	0.407473	-0.11589715	0.80994335	0.45546714	-0.075102257	0.71994568	0.81748321	-0.26300737	0.76313474	0.86519948	0.11213156	0.78617692	0.93668419	-0.21515478	0.82223383	0.95529665	0.029462785	0.60485384	0.9513443	-0.064041453	0.70315822	1.4209214	-0.23256965	0.70383003	1.4034982	0.096402336	0.61465151	1.4359215	-0.072008519	0.66710082	1.0762131	-0.28555046	0.61674198	1.0669371	0.12767657	0.83994314	0.9062031	-0.32706211	0.69639193	0.84211975	0.17098161
328	1.308	0.55805281	0.075207996	-0.18162476	0.86941308	0.038476477	-0.016496455	0.50680056	0.20137825	-0.20171659	0.72712787	0.055517993	0.019890607	0.53599044	0.20225674	-0.12136669	0.74779025	0.081457712	-0.063589528	0.44776259	0.23103109	-0.15105732	0.67508629	0.033218031	-0.025261601	0.79348874	0.44422351	-0.23270164	0.80537952	0.44916423	0.05243	0.82026744	0.41031617	-0.11478331	0.81128834	0.45536941	-0.074721951	0.72735584	0.81920588	-0.26297324	0.76793021	0.86556514	0.11225119	0.79246613	0.93874651	-0.21452874	0.827642	0.9560019	0.030140946	0.60917463	0.95280143	-0.065595204	0.70893437	1.4222257	-0.2324307	0.70988613	1.4050191	0.096514425	0.62074273	1.4371878	-0.071826164	0.67158889	1.0777952	-0.28547956	0.62573127	1.0673471	0.1284794	0.84191165	0.90564331	-0.32791827	0.71000756	0.84359838	0.17037326
329	1.312	0.57805421	0.073963967	-0.18130944	0.86942477	0.038473097	-0.01651468	0.5224204	0.19831119	-0.20109564	0.72724041	0.055640831	0.01976171	0.55133905	0.19996471	-0.12068414	0.74787352	0.081598413	-0.063690371	0.46230412	0.22625975	-0.1506183	0.67515476	0.033370424	-0.025426908	0.80509923	0.4464546	-0.2318941	0.80642979	0.44929306	0.052595916	0.83141476	0.41313958	-0.11377499	0.81213442	0.45532032	-0.074475468	0.73498003	0.82082362	-0.26283871	0.77266006	0.86587193	0.11233006	0.79839941	0.94078637	-0.21392417	0.83293765	0.95670455	0.030851751	0.61410968	0.95422324	-0.066327791	0.71470796	1.4234697	-0.23228718	0.71591708	1.4064749	0.096621009	0.62684648	1.4384203	-0.071635756	0.67602022	1.0792949	-0.2854508	0.63491973	1.0677001	0.12915861	0.84386236	0.90509039	-0.32876106	0.72366499	0.84517104	0.16979536
330	1.316	0.59825953	0.07280585	-0.18101659	0.86943033	0.038468087	-0.016525071	0.53819321	0.19506623	-0.20049084	0.72738477	0.055773466	0.019629408	0.56678514	0.19749089	-0.11998377	0.7479661	0.081751457	-0.063786479	0.47703579	0.22124741	-0.15015558	0.6752178	0.033532954	-0.025614899	0.81661701	0.44871913	-0.23108174	0.80747906	0.4494149	0.052777304	0.84257523	0.41594235	-0.11285902	0.81236641	0.45534642	-0.07440268	0.74266898	0.8222905	-0.26268788	0.77739769	0.86614164	0.11242104	0.80415585	0.94277531	-0.21331476	0.83807667	0.95742061	0.031614006	0.6196514	0.95549652	-0.066407228	0.72049055	1.4246465	-0.23213314	0.72192742	1.4078712	0.096724058	0.63296143	1.4396107	-0.071436348	0.68042543	1.0807082	-0.28538151	0.6442565	1.0679946	0.12966583	0.84577906	0.90453967	-0.32961082	0.73734356	0.84683808	0.16926376
331	1.32	0.61843759	0.071678899	-0.18066576	0.8694344	0.038466628	-0.016529208	0.55410543	0.19165933	-0.19989702	0.72752114	0.055932596	0.01951188	0.58250096	0.1948373	-0.11933235	0.74806469	0.081915335	-0.063878059	0.49196331	0.21599877	-0.14964867	0.67519503	0.033685337	-0.025782352	0.82802839	0.45100609	-0.23025295	0.80852755	0.4495278	0.052983685	0.85380741	0.41873893	-0.11199884	0.81261173	0.45542958	-0.07434051	0.75022585	0.82367113	-0.26266084	0.78222787	0.8664098	0.11258012	0.8100783	0.94467052	-0.21265384	0.84311166	0.95812469	0.032405209	0.62550853	0.95664102	-0.066279027	0.72628968	1.4257515	-0.23197327	0.72791881	1.4092106	0.096830863	0.63907472	1.4407381	-0.07123904	0.68476474	1.0820351	-0.28537158	0.65363691	1.0682264	0.13002191	0.84766132	0.90399352	-0.33048809	0.75105141	0.84860524	0.16879543
332	1.324	0.63848121	0.070557859	-0.18021833	0.86944095	0.038470985	-0.016531318	0.5701612	0.18810644	-0.19930407	0.72761614	0.056111704	0.019413512	0.59867186	0.1920274	-0.11879842	0.74818018	0.082088437	-0.063974781	0.50708779	0.21052071	-0.14909153	0.67505182	0.033820176	-0.02590715	0.8393228	0.45328364	-0.22940247	0.80957019	0.4496339	0.053221969	0.86514132	0.42153077	-0.11116843	0.81340603	0.45551618	-0.074142203	0.75751691	0.82512562	-0.26285217	0.78714803	0.86667983	0.11279289	0.81632722	0.94644995	-0.21192578	0.84817947	0.9587602	0.033165072	0.63142889	0.95772629	-0.06630258	0.73210513	1.4267719	-0.23181653	0.73389238	1.4104871	0.096943029	0.64517002	1.4417831	-0.071051292	0.68904681	1.0833166	-0.2854588	0.66296437	1.0683823	0.13030389	0.84951402	0.90345683	-0.33140459	0.76481997	0.85048559	0.16841759
333	1.328	0.65850223	0.069461854	-0.17971684	0.86945465	0.03847904	-0.016536784	0.58636189	0.18441073	-0.19870266	0.72766281	0.056295658	0.019324303	0.61535869	0.18909809	-0.11839149	0.74832833	0.082264563	-0.064088851	0.52240672	0.20481889	-0.14849397	0.67484297	0.033949649	-0.025997495	0.85049797	0.45553165	-0.22853321	0.81060012	0.4497378	0.053486519	0.87646596	0.4242959	-0.1103583	0.81463283	0.45556579	-0.073821866	0.76471324	0.82674659	-0.26313033	0.79209773	0.86692838	0.1130016	0.82278936	0.94810992	-0.21115049	0.85335902	0.95929235	0.033858215	0.63736975	0.95878601	-0.066597774	0.7379322	1.4276941	-0.23166813	0.73985073	1.4116889	0.097056303	0.65123767	1.4427402	-0.070873292	0.69336904	1.0846295	-0.2854873	0.6722145	1.068452	0.13056431	0.85133875	0.90293364	-0.33236062	0.77866641	0.85248444	0.16814543
